<svg width="25" height="24" viewBox="0 0 25 24" fill="none" xmlns="http://www.w3.org/2000/svg">
<path d="M13.389 2.36599C13.1542 2.13165 12.8359 2 12.5039 2C12.1719 2 11.8536 2.13165 11.6188 2.36599L2.85534 11.1161C2.62729 11.3519 2.5011 11.6676 2.50395 11.9954C2.50681 12.3231 2.63847 12.6366 2.87059 12.8684C3.1027 13.1002 3.4167 13.2316 3.74495 13.2345C4.0732 13.2373 4.38944 13.1113 4.62556 12.8836L4.99237 12.5174V20.75C4.99237 21.0815 5.12427 21.3995 5.35905 21.6339C5.59383 21.8683 5.91226 22 6.24429 22H8.74814C9.08017 22 9.3986 21.8683 9.63338 21.6339C9.86816 21.3995 10.0001 21.0815 10.0001 20.75V18.25C10.0001 17.9184 10.132 17.6005 10.3667 17.3661C10.6015 17.1316 10.92 16.9999 11.252 16.9999H13.7558C14.0879 16.9999 14.4063 17.1316 14.6411 17.3661C14.8759 17.6005 15.0078 17.9184 15.0078 18.25V20.75C15.0078 21.0815 15.1397 21.3995 15.3744 21.6339C15.6092 21.8683 15.9276 22 16.2597 22H18.7635C19.0956 22 19.414 21.8683 19.6488 21.6339C19.8835 21.3995 20.0154 21.0815 20.0154 20.75V12.5174L20.3823 12.8836C20.6184 13.1113 20.9346 13.2373 21.2629 13.2345C21.5911 13.2316 21.9051 13.1002 22.1372 12.8684C22.3693 12.6366 22.501 12.3231 22.5039 11.9954C22.5067 11.6676 22.3805 11.3519 22.1525 11.1161L13.389 2.36599Z" fill="#1A334D"/>
</svg>
