<svg width="33" height="32" viewBox="0 0 33 32" fill="none" xmlns="http://www.w3.org/2000/svg">
<path d="M16.4567 15.5311H17.3942M16.4567 16.4686H17.3942M7.70673 15.5311H8.64423M7.70673 16.4686H8.64423M25.2067 15.5311H26.1442M25.2067 16.4686H26.1442M18.1758 15.9999C18.1758 16.6902 17.6161 17.2499 16.9258 17.2499C16.2354 17.2499 15.6758 16.6902 15.6758 15.9999C15.6758 15.3095 16.2354 14.7499 16.9258 14.7499C17.6161 14.7499 18.1758 15.3095 18.1758 15.9999ZM9.42578 15.9999C9.42578 16.6902 8.86614 17.2499 8.17578 17.2499C7.48543 17.2499 6.92578 16.6902 6.92578 15.9999C6.92578 15.3095 7.48543 14.7499 8.17578 14.7499C8.86614 14.7499 9.42578 15.3095 9.42578 15.9999ZM26.9258 15.9999C26.9258 16.6902 26.3661 17.2499 25.6758 17.2499C24.9854 17.2499 24.4258 16.6902 24.4258 15.9999C24.4258 15.3095 24.9854 14.7499 25.6758 14.7499C26.3661 14.7499 26.9258 15.3095 26.9258 15.9999Z" stroke="#4D4D4D" stroke-width="1.5" stroke-linecap="round"/>
</svg>
