<svg width="364" height="52" viewBox="0 0 364 52" fill="none" xmlns="http://www.w3.org/2000/svg">
<g filter="url(#filter0_d_1719_1991)">
<rect x="1.37207" y="1" width="361" height="50" rx="25" fill="white"/>
<path d="M33.7622 19.7969C33.932 19.7969 34.1948 19.8171 34.5505 19.8575C34.9143 19.8898 35.3266 19.9788 35.7875 20.1243C36.2483 20.2698 36.7172 20.5043 37.1943 20.8277C37.6713 21.1511 38.1119 21.6038 38.5161 22.186C38.4757 22.2102 38.3221 22.3194 38.0553 22.5134C37.7966 22.7074 37.5015 22.9904 37.17 23.3623C36.8385 23.7261 36.5475 24.191 36.2968 24.7569C36.0543 25.3148 35.933 25.9818 35.933 26.758C35.933 27.6473 36.0866 28.3992 36.3939 29.0136C36.7092 29.6281 37.073 30.1253 37.4853 30.5053C37.9057 30.8853 38.2776 31.1642 38.601 31.3421C38.9325 31.5119 39.1104 31.6008 39.1346 31.6089C39.1265 31.6412 39.0659 31.8231 38.9527 32.1546C38.8395 32.478 38.6617 32.8984 38.4191 33.4159C38.1847 33.9252 37.8774 34.4588 37.4974 35.0167C37.1498 35.5099 36.79 35.9828 36.4181 36.4356C36.0543 36.8883 35.6541 37.2562 35.2175 37.5392C34.789 37.8302 34.3039 37.9757 33.7622 37.9757C33.3499 37.9757 32.9982 37.9272 32.7071 37.8302C32.4161 37.7332 32.1372 37.62 31.8704 37.4907C31.6116 37.3694 31.3246 37.2602 31.0093 37.1632C30.694 37.0662 30.3019 37.0177 29.833 37.0177C29.2185 37.0177 28.7051 37.0985 28.2928 37.2602C27.8885 37.43 27.5045 37.5958 27.1407 37.7575C26.7769 37.9192 26.3484 38 25.8552 38C25.1033 38 24.4403 37.7009 23.8663 37.1026C23.3004 36.5043 22.7183 35.7888 22.12 34.956C21.6591 34.2931 21.2387 33.5291 20.8587 32.664C20.4787 31.7989 20.1756 30.8813 19.9492 29.9111C19.7228 28.9409 19.6096 27.9707 19.6096 27.0005C19.6096 25.4482 19.9047 24.1425 20.4949 23.0834C21.0851 22.0243 21.841 21.2239 22.7627 20.6822C23.6844 20.1405 24.6425 19.8696 25.6369 19.8696C26.1624 19.8696 26.6556 19.9545 27.1164 20.1243C27.5854 20.2941 28.0219 20.4679 28.4262 20.6458C28.8304 20.8156 29.1983 20.9005 29.5298 20.9005C29.8451 20.9005 30.217 20.8115 30.6455 20.6337C31.074 20.4477 31.547 20.2617 32.0644 20.0758C32.5899 19.8898 33.1559 19.7969 33.7622 19.7969ZM32.9133 17.8322C32.5091 18.3254 31.9997 18.7337 31.3853 19.0571C30.7789 19.3805 30.2049 19.5422 29.6632 19.5422C29.55 19.5422 29.4408 19.5301 29.3357 19.5058C29.3277 19.4735 29.3155 19.4169 29.2994 19.336C29.2913 19.2552 29.2872 19.1662 29.2872 19.0692C29.2872 18.4548 29.4206 17.8565 29.6874 17.2744C29.9542 16.6923 30.2615 16.2072 30.6091 15.8191C31.0376 15.3098 31.5793 14.8853 32.2342 14.5457C32.8971 14.2062 33.5318 14.0243 34.1382 14C34.1624 14.1374 34.1746 14.2951 34.1746 14.473C34.1746 15.0955 34.0573 15.7019 33.8229 16.2921C33.5884 16.8742 33.2852 17.3876 32.9133 17.8322Z" fill="black"/>
<path d="M123.599 32L127.583 20.6875H130.083L134.083 32H131.911L130.966 29.2031H126.708L125.771 32H123.599ZM130.419 27.5625L128.88 23H128.786L127.255 27.5625H130.419ZM135.333 23.5156H137.286V24.9062H137.411C137.619 24.4948 137.911 24.1432 138.286 23.8516C138.661 23.5547 139.182 23.4062 139.849 23.4062C140.51 23.4062 141.104 23.5755 141.63 23.9141C142.161 24.2526 142.58 24.75 142.888 25.4062C143.195 26.0625 143.349 26.849 143.349 27.7656C143.349 28.6719 143.198 29.4557 142.896 30.1172C142.593 30.7786 142.177 31.2839 141.646 31.6328C141.119 31.9766 140.521 32.151 139.849 32.1562C139.198 32.151 138.679 32.0026 138.294 31.7109C137.909 31.4193 137.614 31.0677 137.411 30.6562H137.333V35.1875H135.333V23.5156ZM137.286 27.75C137.291 28.3021 137.372 28.7865 137.528 29.2031C137.685 29.6198 137.914 29.9427 138.216 30.1719C138.518 30.401 138.88 30.5156 139.302 30.5156C139.729 30.5156 140.093 30.3984 140.396 30.1641C140.703 29.9297 140.932 29.6042 141.083 29.1875C141.239 28.7708 141.317 28.2917 141.317 27.75C141.317 26.9323 141.143 26.276 140.794 25.7812C140.45 25.2865 139.953 25.0365 139.302 25.0312C138.661 25.0365 138.166 25.2812 137.817 25.7656C137.468 26.25 137.291 26.9115 137.286 27.75ZM144.911 23.5156H146.864V24.9062H146.989C147.198 24.4948 147.489 24.1432 147.864 23.8516C148.239 23.5547 148.76 23.4062 149.427 23.4062C150.088 23.4062 150.682 23.5755 151.208 23.9141C151.739 24.2526 152.159 24.75 152.466 25.4062C152.773 26.0625 152.927 26.849 152.927 27.7656C152.927 28.6719 152.776 29.4557 152.474 30.1172C152.172 30.7786 151.755 31.2839 151.224 31.6328C150.698 31.9766 150.099 32.151 149.427 32.1562C148.776 32.151 148.257 32.0026 147.872 31.7109C147.487 31.4193 147.192 31.0677 146.989 30.6562H146.911V35.1875H144.911V23.5156ZM146.864 27.75C146.869 28.3021 146.95 28.7865 147.106 29.2031C147.263 29.6198 147.492 29.9427 147.794 30.1719C148.096 30.401 148.458 30.5156 148.88 30.5156C149.307 30.5156 149.672 30.3984 149.974 30.1641C150.281 29.9297 150.51 29.6042 150.661 29.1875C150.817 28.7708 150.896 28.2917 150.896 27.75C150.896 26.9323 150.721 26.276 150.372 25.7812C150.028 25.2865 149.531 25.0365 148.88 25.0312C148.239 25.0365 147.744 25.2812 147.396 25.7656C147.047 26.25 146.869 26.9115 146.864 27.75ZM156.489 32H154.489V20.6875H156.489V32ZM162.161 32.1719C161.317 32.1719 160.586 31.9948 159.966 31.6406C159.346 31.2812 158.869 30.7734 158.536 30.1172C158.203 29.4609 158.036 28.6927 158.036 27.8125C158.036 26.9427 158.203 26.1771 158.536 25.5156C158.869 24.849 159.338 24.3307 159.942 23.9609C160.552 23.5911 161.255 23.4062 162.052 23.4062C162.771 23.4062 163.422 23.5625 164.005 23.875C164.593 24.1823 165.06 24.6562 165.403 25.2969C165.752 25.9375 165.927 26.7344 165.927 27.6875V28.3125H160.005C160.015 28.7865 160.109 29.1979 160.286 29.5469C160.468 29.8906 160.718 30.1536 161.036 30.3359C161.359 30.5182 161.734 30.6094 162.161 30.6094C162.588 30.6094 162.95 30.5312 163.247 30.375C163.544 30.2135 163.76 30 163.896 29.7344H165.849C165.729 30.224 165.502 30.6536 165.169 31.0234C164.836 31.388 164.411 31.6719 163.896 31.875C163.385 32.0729 162.807 32.1719 162.161 32.1719ZM164.021 26.9531C164.021 26.5729 163.937 26.2318 163.771 25.9297C163.609 25.6224 163.38 25.3828 163.083 25.2109C162.791 25.0391 162.458 24.9531 162.083 24.9531C161.698 24.9531 161.351 25.0443 161.044 25.2266C160.737 25.4036 160.494 25.6458 160.317 25.9531C160.14 26.2604 160.039 26.5938 160.013 26.9531H164.021ZM179.896 31.75H166.989V30.3125H172.552V28.0156H168.521V23.3906H176.646V21.6406H168.489V20.2344H178.364V24.7656H170.255V26.5938H178.692V28.0156H174.271V30.3125H179.896V31.75ZM196.802 33.3906H195.146V19.2656H196.802V33.3906ZM184.474 29.1719C185.906 28.3229 186.984 27.3438 187.708 26.2344C188.437 25.125 188.869 23.8438 189.005 22.3906H185.224V20.9844H190.724C190.724 21.7135 190.674 22.4062 190.575 23.0625H192.224V19.6094H193.88V32.7188H192.224V28H190.021V26.5781H192.224V24.4844H190.278C189.929 25.6979 189.364 26.7995 188.583 27.7891C187.807 28.7734 186.776 29.6458 185.489 30.4062L184.474 29.1719ZM211.317 27.6094H198.442V26.2031H204.005V24.2344H205.724V26.2031H211.317V27.6094ZM199.146 23.6875C200.093 23.5677 200.932 23.3281 201.661 22.9688C202.396 22.6042 202.963 22.1641 203.364 21.6484C203.771 21.1328 203.974 20.5938 203.974 20.0312V19.5H205.739V20.0312C205.739 20.6042 205.94 21.1484 206.341 21.6641C206.742 22.1797 207.31 22.6172 208.044 22.9766C208.778 23.3307 209.625 23.5677 210.583 23.6875L209.911 25.0469C208.755 24.8698 207.734 24.5312 206.849 24.0312C205.963 23.526 205.297 22.9036 204.849 22.1641C204.396 22.9036 203.726 23.526 202.841 24.0312C201.955 24.5312 200.932 24.8698 199.771 25.0469L199.146 23.6875ZM199.864 28.7344H209.739V33.3906H208.005V30.0938H199.864V28.7344ZM223.333 24.8906H225.505V26.3281H223.333V33.3906H221.614V19.2656H223.333V24.8906ZM212.192 21.4375H215.536V19.4688H217.271V21.4375H220.521V22.8281H212.192V21.4375ZM212.849 27.0781C212.843 26.4375 212.994 25.8646 213.302 25.3594C213.609 24.849 214.034 24.4531 214.575 24.1719C215.117 23.8906 215.729 23.75 216.411 23.75C217.083 23.75 217.687 23.8906 218.224 24.1719C218.76 24.4531 219.182 24.849 219.489 25.3594C219.802 25.8646 219.958 26.4375 219.958 27.0781C219.958 27.7188 219.802 28.2917 219.489 28.7969C219.182 29.2969 218.76 29.6875 218.224 29.9688C217.687 30.25 217.083 30.3906 216.411 30.3906C215.729 30.3906 215.117 30.25 214.575 29.9688C214.034 29.6875 213.609 29.2969 213.302 28.7969C212.994 28.2917 212.843 27.7188 212.849 27.0781ZM214.505 27.0781C214.505 27.4531 214.586 27.7839 214.747 28.0703C214.909 28.3516 215.132 28.5703 215.419 28.7266C215.711 28.8776 216.041 28.9531 216.411 28.9531C216.771 28.9531 217.093 28.8776 217.38 28.7266C217.666 28.5755 217.89 28.3568 218.052 28.0703C218.213 27.7839 218.297 27.4531 218.302 27.0781C218.297 26.7031 218.211 26.3724 218.044 26.0859C217.882 25.7943 217.659 25.5703 217.372 25.4141C217.091 25.2526 216.771 25.1719 216.411 25.1719C216.041 25.1719 215.711 25.2526 215.419 25.4141C215.132 25.5703 214.909 25.7943 214.747 26.0859C214.586 26.3724 214.505 26.7031 214.505 27.0781ZM237.896 33.3906H236.146V19.2656H237.896V33.3906ZM226.192 29.5C228.015 28.6354 229.382 27.6016 230.294 26.3984C231.211 25.1953 231.75 23.776 231.911 22.1406H226.911V20.7656H233.677C233.677 23.0104 233.169 24.9792 232.153 26.6719C231.138 28.3646 229.453 29.7708 227.099 30.8906L226.192 29.5Z" fill="black"/>
</g>
<defs>
<filter id="filter0_d_1719_1991" x="0.37207" y="0" width="363" height="52" filterUnits="userSpaceOnUse" color-interpolation-filters="sRGB">
<feFlood flood-opacity="0" result="BackgroundImageFix"/>
<feColorMatrix in="SourceAlpha" type="matrix" values="0 0 0 0 0 0 0 0 0 0 0 0 0 0 0 0 0 0 127 0" result="hardAlpha"/>
<feOffset/>
<feGaussianBlur stdDeviation="0.5"/>
<feComposite in2="hardAlpha" operator="out"/>
<feColorMatrix type="matrix" values="0 0 0 0 0 0 0 0 0 0 0 0 0 0 0 0 0 0 0.25 0"/>
<feBlend mode="normal" in2="BackgroundImageFix" result="effect1_dropShadow_1719_1991"/>
<feBlend mode="normal" in="SourceGraphic" in2="effect1_dropShadow_1719_1991" result="shape"/>
</filter>
</defs>
</svg>
