<svg width="33" height="33" viewBox="0 0 33 33" fill="none" xmlns="http://www.w3.org/2000/svg">
<path d="M23.7988 25.9491H23.7987L9.12365 25.9377L23.7988 25.9491ZM23.7988 25.9491C24.6029 25.9491 25.3552 25.8112 26.0545 25.5346C26.7525 25.2661 27.3634 24.8897 27.8864 24.4053C28.4167 23.921 28.8285 23.3592 29.1211 22.7203C29.4217 22.0726 29.5718 21.3789 29.5718 20.6403C29.5718 19.888 29.4336 19.1804 29.1565 18.5184C28.8798 17.8496 28.4836 17.261 27.9686 16.7535C27.4753 16.2529 26.8847 15.8582 26.1981 15.5688C26.2054 14.3984 26.0146 13.3209 25.6244 12.3376C25.2349 11.3297 24.6845 10.4542 23.973 9.71201C23.2617 8.9625 22.4314 8.38479 21.483 7.97938C20.5411 7.57354 19.5197 7.37113 18.4202 7.37113C17.443 7.37113 16.5544 7.53147 15.7559 7.8539C14.9686 8.16734 14.2718 8.58828 13.6665 9.11697L13.666 9.11739C13.0901 9.62683 12.596 10.1902 12.1839 10.8076C11.5362 10.6182 10.8906 10.5865 10.2484 10.7134C9.59194 10.837 8.98945 11.0997 8.44177 11.5009L8.44123 11.5013C7.90059 11.9029 7.4646 12.4124 7.13336 13.0286C6.81278 13.6177 6.64024 14.2772 6.61414 15.0053C5.83248 15.1292 5.1523 15.4263 4.57625 15.8976C3.98227 16.3836 3.52008 16.9965 3.1895 17.7346L3.1893 17.735C2.86608 18.4661 2.70518 19.2689 2.70518 20.142C2.70518 20.9336 2.86667 21.6802 3.18996 22.3807L3.19035 22.3815C3.52046 23.0801 3.97345 23.6981 4.54869 24.235L4.54922 24.2355M23.7988 25.9491L4.54922 24.2355M4.54922 24.2355C5.12523 24.7654 5.80422 25.1794 6.58497 25.478M4.54922 24.2355L6.58497 25.478M6.58497 25.478C7.36746 25.7848 8.21398 25.9377 9.12357 25.9377L6.58497 25.478ZM26.9496 18.225L26.95 18.2255C27.5143 18.8851 27.7979 19.688 27.7979 20.6403C27.7979 21.293 27.6222 21.8853 27.2708 22.4197C26.9184 22.9556 26.4372 23.3861 25.8245 23.711C25.2214 24.0272 24.5394 24.1864 23.7762 24.1864C23.7762 24.1864 23.7762 24.1864 23.7762 24.1864L9.12372 24.1751H9.12365C8.23211 24.1751 7.43297 23.9895 6.72405 23.6203C6.02085 23.2501 5.47192 22.7593 5.07442 22.1484C4.67733 21.538 4.47913 20.87 4.47913 20.142C4.47913 19.4382 4.61611 18.804 4.88823 18.2377C5.15975 17.6727 5.55135 17.2265 6.06378 16.8971L6.06462 16.8965C6.57365 16.562 7.19902 16.3921 7.94601 16.3921C8.0271 16.3921 8.1059 16.3703 8.16309 16.3098C8.21926 16.2503 8.23851 16.1702 8.23851 16.0883C8.23851 15.0215 8.46245 14.2039 8.8978 13.6233C9.34501 13.0294 9.90634 12.6587 10.5837 12.5057L10.5837 12.5057L10.5847 12.5055C11.2671 12.344 11.969 12.3838 12.6926 12.6275L12.6926 12.6275L12.6963 12.6286C12.7724 12.651 12.8493 12.6569 12.9203 12.6332C12.9936 12.6088 13.0477 12.5573 13.084 12.4901C13.4272 11.8709 13.8374 11.3079 14.3146 10.8008C14.7958 10.29 15.3737 9.88229 16.0494 9.57787C16.7209 9.27533 17.5103 9.12244 18.4202 9.12244C19.5736 9.12244 20.5892 9.39755 21.47 9.9453L21.4708 9.94581C22.3626 10.4883 23.0717 11.2086 23.5993 12.1077C24.1269 13.0068 24.4244 13.9913 24.4915 15.0626C24.4989 15.2852 24.4952 15.527 24.4803 15.7881L24.4802 15.7881L24.4802 15.791C24.4726 16.0542 24.4614 16.3098 24.4463 16.5578L24.4463 16.5583C24.4418 16.6389 24.4543 16.7168 24.4969 16.7807C24.5408 16.8464 24.6074 16.8838 24.6834 16.8994C25.6383 17.1217 26.3917 17.5644 26.9496 18.225Z" fill="white" stroke="white" stroke-width="0.2" stroke-linejoin="round"/>
</svg>
