<svg width="33" height="32" viewBox="0 0 33 32" fill="none" xmlns="http://www.w3.org/2000/svg">
<path d="M28.1199 16H17.659M28.1199 16L23.1199 11.5556M28.1199 16L23.1199 20.4445M25.8568 7.11113V5.62965C25.8568 4.84382 25.5446 4.09018 24.989 3.53452C24.4333 2.97886 23.6797 2.66669 22.8939 2.66669H8.28059C7.49476 2.66669 6.74112 2.97886 6.18546 3.53452C5.6298 4.09018 5.31763 4.84382 5.31763 5.62965V26.3704C5.31763 27.1562 5.6298 27.9099 6.18546 28.4655C6.74112 29.0212 7.49476 29.3334 8.28059 29.3334H22.8939C23.6797 29.3334 24.4333 29.0212 24.989 28.4655C25.5446 27.9099 25.8568 27.1562 25.8568 26.3704V24.8889" stroke="#888888" stroke-width="1.5" stroke-linecap="round" stroke-linejoin="round"/>
</svg>
