<svg width="18" height="22" viewBox="0 0 18 22" fill="none" xmlns="http://www.w3.org/2000/svg">
<path d="M12.7188 11.5C12.7188 11.6554 12.657 11.8044 12.5471 11.9143C12.4372 12.0242 12.2882 12.0859 12.1328 12.0859H5.88281C5.72741 12.0859 5.57838 12.0242 5.46849 11.9143C5.35861 11.8044 5.29688 11.6554 5.29688 11.5C5.29688 11.3446 5.35861 11.1956 5.46849 11.0857C5.57838 10.9758 5.72741 10.9141 5.88281 10.9141H12.1328C12.2882 10.9141 12.4372 10.9758 12.5471 11.0857C12.657 11.1956 12.7188 11.3446 12.7188 11.5ZM12.1328 14.0391H5.88281C5.72741 14.0391 5.57838 14.1008 5.46849 14.2107C5.35861 14.3206 5.29688 14.4696 5.29688 14.625C5.29688 14.7804 5.35861 14.9294 5.46849 15.0393C5.57838 15.1492 5.72741 15.2109 5.88281 15.2109H12.1328C12.2882 15.2109 12.4372 15.1492 12.5471 15.0393C12.657 14.9294 12.7188 14.7804 12.7188 14.625C12.7188 14.4696 12.657 14.3206 12.5471 14.2107C12.4372 14.1008 12.2882 14.0391 12.1328 14.0391ZM17.4062 3.6875V18.5312C17.4062 19.3083 17.0976 20.0534 16.5482 20.6029C15.9987 21.1523 15.2536 21.4609 14.4766 21.4609H3.53906C2.76206 21.4609 2.01688 21.1523 1.46746 20.6029C0.918038 20.0534 0.609375 19.3083 0.609375 18.5312V3.6875C0.609375 3.3249 0.753418 2.97715 1.00982 2.72075C1.26621 2.46436 1.61396 2.32031 1.97656 2.32031H3.73438V1.34375C3.73438 1.18835 3.79611 1.03931 3.90599 0.92943C4.01588 0.819545 4.16491 0.757813 4.32031 0.757812C4.47571 0.757812 4.62475 0.819545 4.73463 0.92943C4.84452 1.03931 4.90625 1.18835 4.90625 1.34375V2.32031H8.42188V1.34375C8.42188 1.18835 8.48361 1.03931 8.59349 0.92943C8.70338 0.819545 8.85241 0.757813 9.00781 0.757812C9.16321 0.757812 9.31225 0.819545 9.42213 0.92943C9.53202 1.03931 9.59375 1.18835 9.59375 1.34375V2.32031H13.1094V1.34375C13.1094 1.18835 13.1711 1.03931 13.281 0.92943C13.3909 0.819545 13.5399 0.757813 13.6953 0.757812C13.8507 0.757812 13.9997 0.819545 14.1096 0.92943C14.2195 1.03931 14.2812 1.18835 14.2812 1.34375V2.32031H16.0391C16.4017 2.32031 16.7494 2.46436 17.0058 2.72075C17.2622 2.97715 17.4062 3.3249 17.4062 3.6875ZM16.2344 3.6875C16.2344 3.6357 16.2138 3.58602 16.1772 3.54939C16.1405 3.51276 16.0909 3.49219 16.0391 3.49219H14.2812V4.46875C14.2812 4.62415 14.2195 4.77319 14.1096 4.88307C13.9997 4.99296 13.8507 5.05469 13.6953 5.05469C13.5399 5.05469 13.3909 4.99296 13.281 4.88307C13.1711 4.77319 13.1094 4.62415 13.1094 4.46875V3.49219H9.59375V4.46875C9.59375 4.62415 9.53202 4.77319 9.42213 4.88307C9.31225 4.99296 9.16321 5.05469 9.00781 5.05469C8.85241 5.05469 8.70338 4.99296 8.59349 4.88307C8.48361 4.77319 8.42188 4.62415 8.42188 4.46875V3.49219H4.90625V4.46875C4.90625 4.62415 4.84452 4.77319 4.73463 4.88307C4.62475 4.99296 4.47571 5.05469 4.32031 5.05469C4.16491 5.05469 4.01588 4.99296 3.90599 4.88307C3.79611 4.77319 3.73438 4.62415 3.73438 4.46875V3.49219H1.97656C1.92476 3.49219 1.87508 3.51276 1.83846 3.54939C1.80183 3.58602 1.78125 3.6357 1.78125 3.6875V18.5312C1.78125 18.9975 1.96645 19.4446 2.2961 19.7742C2.62576 20.1039 3.07286 20.2891 3.53906 20.2891H14.4766C14.9428 20.2891 15.3899 20.1039 15.7195 19.7742C16.0492 19.4446 16.2344 18.9975 16.2344 18.5312V3.6875Z" fill="#1A334D"/>
</svg>
