<svg width="25" height="29" viewBox="0 0 25 29" fill="none" xmlns="http://www.w3.org/2000/svg">
<path d="M24 14.7646H14M14 14.7646L19 19.2091M14 14.7646L19 10.3202M22.3704 5.87572V4.39424C22.3704 3.60841 22.0582 2.85477 21.5025 2.29911C20.9469 1.74344 20.1932 1.43127 19.4074 1.43127H4.5926C3.80677 1.43127 3.05313 1.74344 2.49747 2.29911C1.94181 2.85477 1.62964 3.60841 1.62964 4.39424V25.135C1.62964 25.9208 1.94181 26.6744 2.49747 27.2301C3.05313 27.7858 3.80677 28.0979 4.5926 28.0979H19.4074C20.1932 28.0979 20.9469 27.7858 21.5025 27.2301C22.0582 26.6744 22.3704 25.9208 22.3704 25.135V23.6535" stroke="#1A334D" stroke-width="1.5" stroke-linecap="round" stroke-linejoin="round"/>
</svg>
