<svg width="33" height="33" viewBox="0 0 33 33" fill="none" xmlns="http://www.w3.org/2000/svg">
<path d="M8.76718 4.10659C8.45456 4.20944 8.19718 4.36637 7.99252 4.57513L7.99182 4.57583L7.99182 4.57583C7.59619 4.97146 7.39039 5.56014 7.39039 6.35942V24.0082C7.63013 23.7773 7.90368 23.5987 8.2107 23.473M8.76718 4.10659L8.21122 23.4728C8.21105 23.4729 8.21087 23.4729 8.2107 23.473M8.76718 4.10659V23.3058C8.56524 23.3461 8.37965 23.4017 8.2107 23.473M8.76718 4.10659L8.2107 23.473M23.83 26.5837C23.955 27.3493 24.3026 28.0092 24.8697 28.5615H9.66188C8.93108 28.5615 8.37392 28.3689 7.97699 27.9958L7.97694 27.9958C7.58981 27.6323 7.39039 27.1149 7.39039 26.4288C7.39039 25.7788 7.59247 25.2778 7.98845 24.9133C8.39422 24.5475 8.95223 24.3591 9.6745 24.3591H23.2853C23.6317 24.3591 23.9555 24.3242 24.2561 24.2536C23.8468 25.0328 23.7025 25.8104 23.83 26.5837ZM23.83 26.5837C23.83 26.5837 23.83 26.5838 23.83 26.5838L23.9287 26.5676L23.83 26.5837C23.83 26.5837 23.83 26.5837 23.83 26.5837ZM26.5551 22.5725L26.5555 22.5718C26.7392 22.1604 26.8291 21.6664 26.8291 21.0929V6.3342C26.8291 5.19968 26.5389 4.32502 25.9422 3.72819C25.3455 3.12299 24.4751 2.82833 23.3484 2.82833H9.75019C8.61533 2.82833 7.74051 3.12289 7.14374 3.72826C6.54708 4.3251 6.25693 5.19972 6.25693 6.3342V26.4666C6.25693 27.4785 6.54479 28.2767 7.13246 28.8468C7.72004 29.4169 8.55144 29.695 9.61143 29.695H26.2876C26.4436 29.695 26.5774 29.6455 26.6755 29.5377C26.7807 29.4314 26.8291 29.2911 26.8291 29.1283C26.8291 29.0232 26.7973 28.9216 26.7391 28.8245L26.7392 28.8245L26.7366 28.8205C26.6769 28.731 26.5974 28.6612 26.4999 28.6118C25.9019 28.2506 25.4672 27.7938 25.1913 27.2419C24.9151 26.6895 24.8253 26.0968 24.923 25.4608C25.0285 24.8369 25.3536 24.2191 25.9076 23.6072L25.9076 23.6073L25.9095 23.605C26.1602 23.3112 26.3752 22.9667 26.5551 22.5725ZM23.4872 23.2257H9.82496V3.96179H23.298C24.1055 3.96179 24.6979 4.17168 25.0935 4.57513L25.0942 4.57583C25.4898 4.97146 25.6956 5.56014 25.6956 6.35942V21.0173C25.6956 21.7713 25.5072 22.3185 25.1478 22.6779C24.7884 23.0372 24.2412 23.2257 23.4872 23.2257ZM25.127 28.6615C25.0888 28.6286 25.0514 28.5953 25.0149 28.5615L25.127 28.6615Z" fill="white" stroke="white" stroke-width="0.2"/>
</svg>
