<svg width="33" height="33" viewBox="0 0 33 33" fill="none" xmlns="http://www.w3.org/2000/svg">
<path d="M24.9112 26.9923H26.735C27.4851 26.9923 28.0336 26.8148 28.3805 26.4599L24.9112 26.9923ZM24.9112 26.9923V26.8923M24.9112 26.9923L24.8112 26.8923M24.9112 26.8923H24.8112M24.9112 26.8923H26.735C27.4718 26.8923 27.9887 26.7177 28.3089 26.39L28.3097 26.3892C28.6298 26.0692 28.8007 25.5481 28.8007 24.8023V12.6789C28.8007 11.9415 28.6299 11.4243 28.3097 11.1041L28.3089 11.1033C27.9887 10.7756 27.4718 10.601 26.735 10.601H24.9112V26.8923ZM24.8112 26.8923V10.601M6.1784 10.601H8.00217V26.8923H6.1784C5.44999 26.8923 4.93696 26.7179 4.61653 26.39L4.61571 26.3892C4.29568 26.0692 4.12474 25.5481 4.12474 24.8023V12.6789C4.12474 11.9415 4.29552 11.4243 4.61571 11.1041L4.61572 11.1041L4.61652 11.1033C4.93696 10.7754 5.44999 10.601 6.1784 10.601ZM9.09751 26.9923H23.8158V26.8923H23.9158V10.601H23.8158V10.501L9.09751 26.9923Z" fill="#1A334D" stroke="#1A334D" stroke-width="0.2"/>
</svg>
