<svg width="33" height="33" viewBox="0 0 33 33" fill="none" xmlns="http://www.w3.org/2000/svg">
<path d="M6.00049 19.8247L5.9999 19.8241C5.5387 19.3629 5.31602 18.6933 5.31602 17.8325V6.21081C5.31602 5.35715 5.53876 4.6913 5.99961 4.23026C6.46073 3.76177 7.13051 3.53536 7.99147 3.53536H24.7748C25.6356 3.53536 26.3053 3.76168 26.7664 4.22998M6.00049 19.8247L26.6957 4.30069M6.00049 19.8247C6.46174 20.2784 7.13118 20.4973 7.99147 20.4973H24.7748C25.6354 20.4973 26.305 20.2746 26.7662 19.8136M6.00049 19.8247L26.6957 19.7427M26.7664 4.22998C26.7666 4.23017 26.7668 4.23036 26.767 4.23055L26.6957 4.30069M26.7664 4.22998C26.7662 4.22978 26.766 4.2296 26.7658 4.2294L26.6957 4.30069M26.7664 4.22998C27.2345 4.69093 27.461 5.3569 27.461 6.21081V17.8325C27.461 18.6866 27.2345 19.3526 26.7662 19.8136M26.6957 4.30069C27.1392 4.73708 27.361 5.37379 27.361 6.21081V17.8325C27.361 18.6696 27.1392 19.3063 26.6957 19.7427M26.7662 19.8136C26.7663 19.8135 26.7663 19.8135 26.7664 19.8134L26.6957 19.7427M26.7662 19.8136C26.7661 19.8137 26.7659 19.8138 26.7658 19.814L26.6957 19.7427M26.0455 4.95087L26.0447 4.95008C25.754 4.65273 25.3323 4.49727 24.7641 4.49727H8.01293C7.4288 4.49727 7.00436 4.65 6.72161 4.93933C6.43807 5.22945 6.28865 5.65845 6.28865 6.24301V17.4482L9.32787 14.5949C9.32802 14.5947 9.32817 14.5946 9.32832 14.5944C9.52714 14.403 9.72871 14.2568 9.93333 14.1583C10.1413 14.0581 10.371 14.0089 10.6206 14.0089C10.8844 14.0089 11.1251 14.0617 11.3407 14.1693C11.5576 14.2741 11.769 14.4191 11.9749 14.603L11.9768 14.6047L11.9768 14.6048L13.7129 16.2375L17.9691 12.4354L17.9697 12.4348C18.2117 12.2222 18.4559 12.0589 18.7026 11.9467C18.9526 11.8331 19.2244 11.7768 19.5166 11.7768C19.824 11.7768 20.1044 11.8406 20.356 11.9701M26.0455 4.95087L20.3107 12.0592M26.0455 4.95087C26.3359 5.24129 26.4884 5.6666 26.4884 6.24301V17.3773M26.0455 4.95087L26.5884 17.469L26.4884 17.3773M20.356 11.9701C20.3562 11.9702 20.3563 11.9702 20.3565 11.9703L20.3107 12.0592M20.356 11.9701C20.3558 11.97 20.3556 11.9699 20.3554 11.9698L20.3107 12.0592M20.356 11.9701C20.6053 12.0948 20.8537 12.252 21.1012 12.4412L21.1083 12.4467L21.108 12.4469L26.4884 17.3773M20.3107 12.0592C20.554 12.1809 20.7972 12.3347 21.0404 12.5207L26.4884 17.513V17.3773M6.18865 17.6792L6.28865 17.5853L6.18865 17.6792ZM6.18865 17.6792V17.5421V17.6792ZM14.2587 8.81061C14.0498 8.45263 13.7658 8.16859 13.4078 7.95968C13.0555 7.7499 12.6658 7.64535 12.241 7.64535C11.8228 7.64535 11.4334 7.75014 11.0745 7.95945L11.0745 7.95944L11.0738 7.95991C10.7227 8.16904 10.4424 8.45321 10.2337 8.811L10.2334 8.81157C10.0312 9.16348 9.93037 9.54918 9.93037 9.96668C9.93037 10.391 10.0311 10.7803 10.2334 11.1325L10.2334 11.1325L10.2342 11.1339C10.4428 11.4841 10.7226 11.7675 11.0724 11.9834L11.0724 11.9834L11.0745 11.9846C11.4334 12.194 11.8228 12.2987 12.241 12.2987C12.8828 12.2987 13.4341 12.0699 13.8891 11.6149L13.8897 11.6143C14.344 11.1525 14.573 10.6017 14.573 9.96668C14.573 9.54865 14.4683 9.1626 14.2587 8.81061ZM14.2587 8.81061C14.2588 8.81074 14.2589 8.81087 14.2589 8.811L14.1726 8.86138M14.2587 8.81061C14.2586 8.81047 14.2585 8.81034 14.2585 8.8102L14.1726 8.86138M14.1726 8.86138C14.3729 9.19762 14.473 9.56606 14.473 9.96668C14.473 10.5748 14.2548 11.1006 13.8184 11.5441M14.1726 8.86138C13.9722 8.51799 13.7004 8.24614 13.357 8.04582C13.0208 7.84551 12.6487 7.74535 12.241 7.74535C11.8403 7.74535 11.4683 7.84551 11.1249 8.04582L13.8184 11.5441M13.8184 11.5441C13.382 11.9805 12.8562 12.1987 12.241 12.1987C11.8403 12.1987 11.4683 12.0986 11.1249 11.8983C10.7887 11.6908 10.5204 11.419 10.3201 11.0827L13.8184 11.5441ZM5.45262 25.3077C5.54543 25.4005 5.66515 25.4443 5.80233 25.4443H26.9747C27.1119 25.4443 27.2316 25.4005 27.3244 25.3077C27.4172 25.2149 27.461 25.0952 27.461 24.958C27.461 24.8259 27.4159 24.7105 27.3244 24.619C27.2316 24.5262 27.1119 24.4824 26.9747 24.4824H5.80233C5.66514 24.4824 5.54543 24.5262 5.45262 24.619C5.3611 24.7105 5.31602 24.8259 5.31602 24.958C5.31602 25.0952 5.3598 25.2149 5.45262 25.3077ZM5.31602 29.9157C5.31602 30.0469 5.36055 30.1618 5.45094 30.253C5.54279 30.3531 5.66292 30.402 5.80233 30.402H20.0639C20.2033 30.402 20.3234 30.3531 20.4153 30.253C20.5057 30.1618 20.5502 30.0469 20.5502 29.9157C20.5502 29.7785 20.5064 29.6588 20.4136 29.566C20.3208 29.4732 20.2011 29.4294 20.0639 29.4294H5.80233C5.66514 29.4294 5.54543 29.4732 5.45262 29.566C5.3598 29.6588 5.31602 29.7785 5.31602 29.9157Z" fill="white" stroke="white" stroke-width="0.2"/>
</svg>
