<svg width="109" height="20" viewBox="0 0 109 20" fill="none" xmlns="http://www.w3.org/2000/svg">
<path d="M102.207 3.29102C102.415 3.29102 102.598 3.42122 102.754 3.68164V3.99414C102.754 4.15039 102.728 4.22852 102.676 4.22852L102.754 4.69727C103.118 10.14 103.717 13.1608 104.551 13.7598C104.798 14.0723 105.059 14.2285 105.332 14.2285C105.905 13.7077 106.322 12.8483 106.582 11.6504C106.79 9.78841 106.895 8.12174 106.895 6.65039V5.32227C106.895 4.91862 107.025 4.6582 107.285 4.54102H107.754C108.014 4.67122 108.145 4.87956 108.145 5.16602V6.33789C108.145 10.9342 107.572 13.7988 106.426 14.9316C106.1 15.1921 105.71 15.3743 105.254 15.4785C103.288 15.4785 102.09 12.5358 101.66 6.65039C101.556 6.11654 101.504 5.2832 101.504 4.15039V3.99414C101.569 3.52539 101.803 3.29102 102.207 3.29102Z" fill="#4D4D4D"/>
<path d="M92.0117 3.13477C93.3008 3.13477 94.5247 3.9681 95.6836 5.63477C96.569 7.80925 97.0117 9.68424 97.0117 11.2598C97.0117 13.0697 96.3607 14.2676 95.0586 14.8535C94.5768 15.0618 94.1341 15.166 93.7305 15.166H93.418C92.793 15.166 92.0378 14.8014 91.1523 14.0723C90.8398 13.6556 90.4232 12.7962 89.9023 11.4941C89.2122 11.4941 88.4049 9.98372 87.4805 6.96289C87.4284 6.91081 87.3763 6.59831 87.3242 6.02539C87.3242 4.5931 88.444 3.6556 90.6836 3.21289C91.2956 3.16081 91.7383 3.13477 92.0117 3.13477ZM88.5742 5.94727C88.5742 6.80664 89.0169 8.08268 89.9023 9.77539H89.9805C90.1497 9.67122 90.306 9.61914 90.4492 9.61914C90.7878 9.61914 91.0482 10.2441 91.2305 11.4941C91.7773 13.1087 92.5326 13.916 93.4961 13.916C93.4961 13.9681 93.5221 13.9941 93.5742 13.9941C95.0326 13.9941 95.7617 13.0046 95.7617 11.0254C95.7617 9.15039 95.1888 7.27539 94.043 5.40039C93.1706 4.72331 92.5195 4.38477 92.0898 4.38477C90.2018 4.38477 89.056 4.80143 88.6523 5.63477C88.6003 5.72591 88.5742 5.83008 88.5742 5.94727Z" fill="#4D4D4D"/>
<path d="M82.1484 0.634766H82.6172C82.8776 0.764974 83.0078 0.973307 83.0078 1.25977C81.2891 4.67122 80.1172 6.93685 79.4922 8.05664L78.0859 10.4004C78.2292 10.9603 78.4115 12.4186 78.6328 14.7754C78.9974 16.5592 79.1797 17.7572 79.1797 18.3691C79.1797 19.2546 78.8932 19.6973 78.3203 19.6973C77.9036 19.6712 77.6953 19.4629 77.6953 19.0723C77.8516 18.7337 77.9297 18.4993 77.9297 18.3691V18.2129C77.4609 14.9967 77.1224 12.4186 76.9141 10.4785C76.224 10.127 75.3125 9.2155 74.1797 7.74414C72.2786 5.94727 70.9245 4.80143 70.1172 4.30664V3.99414C70.1172 3.62956 70.2995 3.44727 70.6641 3.44727H70.7422C71.5625 3.60352 73.2552 5.03581 75.8203 7.74414C76.4583 8.68164 76.9531 9.15039 77.3047 9.15039C78.6849 7.13216 80.013 4.6582 81.2891 1.72852C81.6667 1.10352 81.9531 0.738932 82.1484 0.634766Z" fill="#4D4D4D"/>
<path d="M50.5859 0.888672H50.8203C51.0807 1.01888 51.2109 1.22721 51.2109 1.51367V2.2168C51.2109 3.34961 51.237 4.88607 51.2891 6.82617C51.1328 8.74023 50.8984 10.6152 50.5859 12.4512C50.638 13.0241 50.6641 13.5189 50.6641 13.9355C50.6641 14.222 50.638 14.7168 50.5859 15.4199L50.6641 15.8887C50.5599 16.2012 50.3516 16.3574 50.0391 16.3574C49.7005 16.3574 49.4661 16.097 49.3359 15.5762C49.388 14.9642 49.4141 14.5215 49.4141 14.248V12.6855C49.4141 11.9434 49.4922 11.2142 49.6484 10.498H49.5703C48.4635 10.8626 46.875 11.1751 44.8047 11.4355C44.4401 11.5137 44.2578 11.696 44.2578 11.9824C44.1406 14.0137 43.9844 15.0293 43.7891 15.0293L43.3984 15.1074H43.2422C43.1771 15.1074 43.0469 14.9772 42.8516 14.7168C42.8516 13.1934 43.2682 9.67773 44.1016 4.16992C44.1016 3.23242 44.388 2.76367 44.9609 2.76367C45.1302 2.76367 45.3125 2.94596 45.5078 3.31055L44.4922 10.2637H44.5703C45.9245 10.0033 47.0964 9.82096 48.0859 9.7168C48.4635 9.49544 49.0625 9.31315 49.8828 9.16992V8.7793C49.8828 8.2194 49.9609 7.36003 50.1172 6.20117C50.013 5.36784 49.9609 4.53451 49.9609 3.70117V1.5918C49.9609 1.12305 50.1693 0.888672 50.5859 0.888672Z" fill="#4D4D4D"/>
<path d="M36.7383 5.08789C36.9596 5.15299 37.1159 5.2832 37.207 5.47852V5.71289C37.207 6.07747 36.6341 6.4681 35.4883 6.88477C34.9674 7.24935 33.8997 7.63997 32.2852 8.05664C32.5977 11.3379 32.7799 14.3066 32.832 16.9629C32.8841 16.9629 32.9622 17.2233 33.0664 17.7441V17.9004C33.0664 18.265 32.8841 18.4473 32.5195 18.4473H32.2852C31.7122 18.4473 31.4258 16.3118 31.4258 12.041C31.2174 10.4525 31.1133 9.20247 31.1133 8.29102L30.957 8.21289H29.3945C27.6497 8.21289 26.2435 8.44727 25.1758 8.91602C24.9805 8.91602 24.7721 8.75977 24.5508 8.44727V7.97852C24.5508 7.56185 26.0352 7.22331 29.0039 6.96289H31.1133C31.1133 6.61133 31.2435 6.37695 31.5039 6.25977H31.9727C32.181 6.33789 32.2852 6.49414 32.2852 6.72852H32.3633C32.9102 6.72852 34.2643 6.18164 36.4258 5.08789H36.7383Z" fill="#4D4D4D"/>
<path d="M18.418 0.302734C18.6914 0.302734 19.0039 0.563151 19.3555 1.08398V1.31836C19.3555 1.78711 19.0169 2.02148 18.3398 2.02148C17.8711 1.77409 17.6367 1.48763 17.6367 1.16211V1.08398C17.7409 0.563151 18.0013 0.302734 18.418 0.302734ZM19.1992 5.30273C19.668 5.36784 19.9023 5.60221 19.9023 6.00586V6.24023C20.0065 7.77669 20.0586 8.61003 20.0586 8.74023V8.81836C20.0586 9.222 20.0326 9.58659 19.9805 9.91211C20.2409 12.6074 20.5534 14.9512 20.918 16.9434L20.5273 17.2559H20.293C19.8372 17.2559 19.5508 16.6048 19.4336 15.3027C19.0169 12.8678 18.8086 11.071 18.8086 9.91211V8.34961C18.8086 7.67253 18.7565 7.20378 18.6523 6.94336C18.4831 7.04753 18.3268 7.09961 18.1836 7.09961C17.9102 7.09961 17.7018 6.89128 17.5586 6.47461C17.5586 6.09701 17.9492 5.70638 18.7305 5.30273H19.1992Z" fill="#4D4D4D"/>
<path d="M12.0508 2.62695H12.207C12.2721 2.62695 12.4023 2.75716 12.5977 3.01758V3.4082C11.9727 8.35612 11.6602 11.3249 11.6602 12.3145V14.502C11.5951 15.179 11.3346 15.5176 10.8789 15.5176C9.29036 15.5176 7.83203 14.2676 6.50391 11.7676C6.29557 11.2858 6.19141 10.9993 6.19141 10.9082H6.03516C6.03516 13.929 5.67057 15.4395 4.94141 15.4395H4.47266C3.86068 15.4395 3.13151 14.7103 2.28516 13.252C1.82943 12.015 1.41276 10.6348 1.03516 9.11133C0.358073 7.83529 0.0195312 7.02799 0.0195312 6.68945C0.175781 6.32487 0.410156 6.14258 0.722656 6.14258C1.07422 6.14258 1.30859 6.50716 1.42578 7.23633C1.97266 7.96549 2.49349 9.44987 2.98828 11.6895C3.48307 13.0046 4.00391 13.8379 4.55078 14.1895H4.62891C4.74609 10.3353 5.1888 8.4082 5.95703 8.4082H6.03516C6.58203 8.4082 6.9987 9.11133 7.28516 10.5176C7.76693 11.7546 8.47005 12.7962 9.39453 13.6426C9.8763 14.0072 10.2148 14.1895 10.4102 14.1895V12.627C10.4102 10.9733 10.7747 7.7181 11.5039 2.86133C11.6992 2.70508 11.8815 2.62695 12.0508 2.62695Z" fill="#4D4D4D"/>
</svg>
