<svg width="20" height="20" viewBox="0 0 20 20" fill="none" xmlns="http://www.w3.org/2000/svg">
<path d="M13.7578 7.5C13.7578 8.49456 13.3627 9.44839 12.6595 10.1517C11.9562 10.8549 11.0024 11.25 10.0078 11.25C9.01325 11.25 8.05942 10.8549 7.35616 10.1517C6.6529 9.44839 6.25781 8.49456 6.25781 7.5C6.25781 6.50544 6.6529 5.55161 7.35616 4.84835C8.05942 4.14509 9.01325 3.75 10.0078 3.75C11.0024 3.75 11.9562 4.14509 12.6595 4.84835C13.3627 5.55161 13.7578 6.50544 13.7578 7.5Z" fill="#1A334D"/>
<path fill-rule="evenodd" clip-rule="evenodd" d="M0.0078125 10C0.0078125 7.34784 1.06138 4.8043 2.93674 2.92893C4.81211 1.05357 7.35565 0 10.0078 0C12.66 0 15.2035 1.05357 17.0789 2.92893C18.9542 4.8043 20.0078 7.34784 20.0078 10C20.0078 12.6522 18.9542 15.1957 17.0789 17.0711C15.2035 18.9464 12.66 20 10.0078 20C7.35565 20 4.81211 18.9464 2.93674 17.0711C1.06138 15.1957 0.0078125 12.6522 0.0078125 10ZM10.0078 1.25C8.36003 1.25009 6.74577 1.71545 5.35082 2.59253C3.95586 3.46962 2.83692 4.72276 2.12277 6.20774C1.40862 7.69272 1.1283 9.34917 1.31406 10.9864C1.49983 12.6237 2.14413 14.1753 3.17281 15.4625C4.06031 14.0325 6.01406 12.5 10.0078 12.5C14.0016 12.5 15.9541 14.0312 16.8428 15.4625C17.8715 14.1753 18.5158 12.6237 18.7016 10.9864C18.8873 9.34917 18.607 7.69272 17.8929 6.20774C17.1787 4.72276 16.0598 3.46962 14.6648 2.59253C13.2699 1.71545 11.6556 1.25009 10.0078 1.25Z" fill="#1A334D"/>
</svg>
