<svg width="27" height="26" viewBox="0 0 27 26" fill="none" xmlns="http://www.w3.org/2000/svg">
<path d="M18.722 1.87988C19.1362 1.87988 19.472 1.5441 19.472 1.12988C19.472 0.715669 19.1362 0.379883 18.722 0.379883V1.87988ZM26.1387 13.1299C26.1387 12.7157 25.8029 12.3799 25.3887 12.3799C24.9745 12.3799 24.6387 12.7157 24.6387 13.1299H26.1387ZM4.30072 24.5486L4.64122 23.8803H4.64122L4.30072 24.5486ZM1.96997 22.2178L2.63823 21.8773H2.63823L1.96997 22.2178ZM22.4766 24.5486L22.1361 23.8803L22.4766 24.5486ZM24.8074 22.2178L24.1391 21.8773L24.8074 22.2178ZM1.96997 4.04193L1.30172 3.70144H1.30172L1.96997 4.04193ZM4.30072 1.71118L3.96023 1.04293V1.04293L4.30072 1.71118ZM13.945 15.3202L13.4129 14.7917L13.4129 14.7917L13.945 15.3202ZM25.9208 4.32503C26.2127 4.03112 26.2111 3.55625 25.9172 3.26437C25.6232 2.9725 25.1484 2.97416 24.8565 3.26807L25.9208 4.32503ZM12.999 15.3202L13.5311 14.7917L13.5311 14.7917L12.999 15.3202ZM8.58751 9.81353C8.29564 9.51961 7.82077 9.51796 7.52686 9.80983C7.23295 10.1017 7.23129 10.5766 7.52316 10.8705L8.58751 9.81353ZM16.8553 24.3799H9.922V25.8799H16.8553V24.3799ZM2.13867 16.5965V9.66322H0.638672V16.5965H2.13867ZM9.92201 1.87988H18.722V0.379883H9.92201V1.87988ZM24.6387 13.1299V16.5965H26.1387V13.1299H24.6387ZM9.922 24.3799C8.41616 24.3799 7.33188 24.3793 6.48016 24.3097C5.63719 24.2408 5.0883 24.1081 4.64122 23.8803L3.96023 25.2168C4.65401 25.5703 5.42228 25.7283 6.35801 25.8047C7.28498 25.8805 8.44091 25.8799 9.922 25.8799V24.3799ZM0.638672 16.5965C0.638672 18.0776 0.638089 19.2336 0.713825 20.1605C0.790277 21.0963 0.948216 21.8645 1.30172 22.5583L2.63823 21.8773C2.41043 21.4303 2.27772 20.8814 2.20884 20.0384C2.13926 19.1867 2.13867 18.1024 2.13867 16.5965H0.638672ZM4.64122 23.8803C3.77881 23.4409 3.07764 22.7397 2.63823 21.8773L1.30172 22.5583C1.88495 23.703 2.81558 24.6336 3.96023 25.2168L4.64122 23.8803ZM16.8553 25.8799C18.3364 25.8799 19.4924 25.8805 20.4193 25.8047C21.3551 25.7283 22.1233 25.5703 22.8171 25.2168L22.1361 23.8803C21.689 24.1081 21.1402 24.2408 20.2972 24.3097C19.4455 24.3793 18.3612 24.3799 16.8553 24.3799V25.8799ZM24.6387 16.5965C24.6387 18.1024 24.6381 19.1867 24.5685 20.0384C24.4996 20.8814 24.3669 21.4303 24.1391 21.8773L25.4756 22.5583C25.8291 21.8645 25.9871 21.0963 26.0635 20.1605C26.1393 19.2336 26.1387 18.0776 26.1387 16.5965H24.6387ZM22.8171 25.2168C23.9618 24.6336 24.8924 23.703 25.4756 22.5583L24.1391 21.8773C23.6997 22.7397 22.9985 23.4409 22.1361 23.8803L22.8171 25.2168ZM2.13867 9.66322C2.13867 8.15737 2.13926 7.07309 2.20884 6.22137C2.27772 5.3784 2.41043 4.82951 2.63823 4.38243L1.30172 3.70144C0.948216 4.39522 0.790277 5.16349 0.713825 6.09922C0.638089 7.02619 0.638672 8.18212 0.638672 9.66322H2.13867ZM9.92201 0.379883C8.44091 0.379883 7.28498 0.3793 6.35801 0.455036C5.42228 0.531488 4.65401 0.689427 3.96023 1.04293L4.64122 2.37944C5.0883 2.15164 5.63719 2.01893 6.48016 1.95005C7.33188 1.88047 8.41616 1.87988 9.92201 1.87988V0.379883ZM2.63823 4.38243C3.07764 3.52002 3.77881 2.81886 4.64122 2.37944L3.96023 1.04293C2.81558 1.62616 1.88495 2.55679 1.30172 3.70144L2.63823 4.38243ZM14.4772 15.8487L25.9208 4.32503L24.8565 3.26807L13.4129 14.7917L14.4772 15.8487ZM13.5311 14.7917L8.58751 9.81353L7.52316 10.8705L12.4668 15.8487L13.5311 14.7917ZM13.4129 14.7917C13.4455 14.7589 13.4985 14.7589 13.5311 14.7917L12.4668 15.8487C13.0208 16.4066 13.9232 16.4066 14.4772 15.8487L13.4129 14.7917Z" fill="#1A334D"/>
</svg>
